# xmcd
#
# Track frame offsets: 
#        150
#        16703
#        36424
#        50410
#        63850
#        83095
#        100202
#        111742
#        132279
#        152962
#        168120
#        181996
#        193739
#        213022
#        230440
#        244761
#        262166
#        277457
#        291452
#
# Disc length: 4109 seconds
#
# Revision: 0
# Processed by: cddbd v1.5.2PL0 Copyright (c) Steve Scherf et al.
# Submitted via: ExactAudioCopy v0.99pb5
#
DISCID=1c100b13
DTITLE=Arrypiado - Nossa Fazenda
DYEAR=1900
DGENRE=Country
TTITLE0=Senhor Carreteiro
TTITLE1=Um Nos Por Dois Eus
TTITLE2=Nossa Fazenda
TTITLE3=Pastor Do Gado
TTITLE4=Meu Avo Era Vaqueiro
TTITLE5=Amor A Primeira Vista
TTITLE6=Doido 
TTITLE7=Doido Querendo Amar
TTITLE8=Voce Fugiu De Mim
TTITLE9=Jornal Vagabundo
TTITLE10=Morena Gadeira
TTITLE11=Mulher Valvada
TTITLE12=Nome Gravado
TTITLE13=Por Amar Voce
TTITLE14=Porque Se Apaixonou
TTITLE15=Uma Lagrima
TTITLE16=Sua Ingratidao
TTITLE17=Volta Pra Mim
TTITLE18=Kara Veia -A Estrela Que Nao Se Apagou
EXTD=
EXTT0=
EXTT1=
EXTT2=
EXTT3=
EXTT4=
EXTT5=
EXTT6=
EXTT7=
EXTT8=
EXTT9=
EXTT10=
EXTT11=
EXTT12=
EXTT13=
EXTT14=
EXTT15=
EXTT16=
EXTT17=
EXTT18=
PLAYORDER=
